<svg width="205" height="72" viewBox="0 0 205 72" fill="none" xmlns="http://www.w3.org/2000/svg">
<path d="M40.3189 0.516518H46.5419V33.5738H40.2717L40.3189 0.516518Z" fill="white"/>
<path d="M61.1737 9.58367C62.8395 9.58367 64.4109 9.91424 65.8881 10.5754C67.3653 11.205 68.6539 12.0708 69.754 13.1727C70.854 14.2747 71.7183 15.5655 72.3469 17.0452C73.007 18.5249 73.337 20.1148 73.337 21.8149C73.337 22.7279 73.2427 23.6094 73.0541 24.4595L73.0069 24.5539H61.0322L58.015 19.737H66.9725C66.5324 18.4147 65.7938 17.3285 64.7567 16.4785C63.7509 15.6284 62.5566 15.2034 61.1737 15.2034C60.3251 15.2034 59.5236 15.3766 58.7693 15.7229C58.015 16.0692 57.355 16.5414 56.7892 17.1396C56.2549 17.7063 55.8306 18.399 55.5163 19.2175C55.202 20.0046 55.0449 20.8704 55.0449 21.8149C55.0449 22.539 55.1863 23.2946 55.4692 24.0817C55.7521 24.8373 56.1606 25.5299 56.695 26.1595C57.2293 26.7892 57.8736 27.3244 58.6279 27.7652C59.3822 28.1745 60.2308 28.3791 61.1737 28.3791C62.0223 28.3791 62.7923 28.2689 63.4838 28.0485C64.2066 27.7967 64.8824 27.2615 65.511 26.4429L65.5581 26.3957L65.6524 26.4429L71.1212 28.8514L71.0269 28.9458C69.8954 30.52 68.4496 31.7478 66.6896 32.6293C64.961 33.5109 63.1223 33.9516 61.1737 33.9516C59.4765 33.9516 57.8736 33.6368 56.3649 33.0071C54.8877 32.3775 53.5991 31.5117 52.4991 30.4098C51.399 29.3079 50.519 28.0171 49.859 26.5373C49.2304 25.0576 48.9161 23.4835 48.9161 21.8149C48.9161 20.1148 49.2304 18.5249 49.859 17.0452C50.519 15.5655 51.399 14.2747 52.4991 13.1727C53.5991 12.0708 54.8877 11.205 56.3649 10.5754C57.8736 9.91424 59.4765 9.58367 61.1737 9.58367Z" fill="white"/>
<path d="M78.9888 10.0087L85.0704 27.104L80.9217 31.4015L72.2471 9.96147H78.9888V10.0087ZM91.9064 9.96147H98.6009L88.9363 33.5738H83.4675L85.4004 28.143L91.9064 9.96147Z" fill="white"/>
<path d="M109.193 9.58367C110.859 9.58367 112.43 9.91424 113.907 10.5754C115.385 11.205 116.673 12.0708 117.773 13.1727C118.873 14.2747 119.738 15.5655 120.366 17.0452C121.026 18.5249 121.356 20.1148 121.356 21.8149C121.356 22.7279 121.262 23.6094 121.073 24.4595L121.026 24.5539H109.051L106.034 19.737H114.992C114.552 18.4147 113.813 17.3285 112.776 16.4785C111.77 15.6284 110.576 15.2034 109.193 15.2034C108.344 15.2034 107.543 15.3766 106.789 15.7229C106.034 16.0692 105.374 16.5414 104.808 17.1396C104.274 17.7063 103.85 18.399 103.536 19.2175C103.221 20.0046 103.064 20.8704 103.064 21.8149C103.064 22.539 103.206 23.2946 103.488 24.0817C103.771 24.8373 104.18 25.5299 104.714 26.1595C105.249 26.7892 105.893 27.3244 106.647 27.7652C107.401 28.1745 108.25 28.3791 109.193 28.3791C110.042 28.3791 110.812 28.2689 111.503 28.0485C112.226 27.7967 112.902 27.2615 113.53 26.4429L113.577 26.3957L113.672 26.4429L119.14 28.8514L119.046 28.9458C117.915 30.52 116.469 31.7478 114.709 32.6293C112.98 33.5109 111.142 33.9516 109.193 33.9516C107.496 33.9516 105.893 33.6368 104.384 33.0071C102.907 32.3775 101.618 31.5117 100.518 30.4098C99.4183 29.3079 98.5383 28.0171 97.8782 26.5373C97.2496 25.0576 96.9354 23.4835 96.9354 21.8149C96.9354 20.1148 97.2496 18.5249 97.8782 17.0452C98.5383 15.5655 99.4183 14.2747 100.518 13.1727C101.618 12.0708 102.907 11.205 104.384 10.5754C105.893 9.91424 107.496 9.58367 109.193 9.58367Z" fill="white"/>
<path d="M142.93 10.906L142.365 11.8505L139.96 16.1479L139.913 16.1007C138.876 15.5025 137.76 15.2034 136.566 15.2034C135.749 15.2034 134.979 15.3451 134.256 15.6284C133.533 15.8803 132.889 16.2581 132.323 16.7618C131.757 17.2341 131.27 17.8008 130.861 18.4619C130.484 19.1231 130.233 19.8314 130.107 20.587V33.5738H123.695V9.96147H130.107V13.0311C131.773 10.7328 134.209 9.58367 137.414 9.58367C139.3 9.58367 141.123 10.0244 142.883 10.906H142.93Z" fill="white"/>
<path d="M29.8543 52.2601C31.3629 52.6693 32.7458 53.1259 34.003 53.6296C35.2916 54.1333 36.3916 54.7472 37.3031 55.4713C38.246 56.1955 38.9689 57.0612 39.4717 58.0687C40.006 59.0762 40.2732 60.2725 40.2732 61.6578V61.7995C40.2732 63.3106 39.9589 64.6959 39.3303 65.9552C38.7331 67.2146 37.8845 68.3007 36.7845 69.2137C35.7159 70.0953 34.443 70.7879 32.9658 71.2916C31.52 71.7639 29.9328 72 28.2042 72C26.6013 72 25.0612 71.8111 23.584 71.4333C22.1383 71.024 20.8182 70.5046 19.6239 69.8749C18.4296 69.2137 17.3767 68.4739 16.4652 67.6553C15.5852 66.8368 14.9094 65.9867 14.438 65.1052L19.9539 61.6106C20.5511 62.2717 21.1482 62.8699 21.7454 63.4051C22.3426 63.9088 22.9712 64.3496 23.6312 64.7274C24.2912 65.0737 25.0141 65.3413 25.7998 65.5302C26.5856 65.7191 27.4499 65.8136 28.3928 65.8136C28.9899 65.8136 29.5871 65.7506 30.1843 65.6247C30.8129 65.4987 31.3786 65.2941 31.8815 65.0107C32.3843 64.7274 32.7929 64.3811 33.1072 63.9718C33.4215 63.531 33.5787 62.9958 33.5787 62.3662C33.5787 61.9254 33.4687 61.5004 33.2487 61.0911C33.0287 60.6818 32.6515 60.2883 32.1172 59.9105C31.5829 59.5012 30.86 59.1234 29.9485 58.7771C29.0371 58.3993 27.8899 58.0372 26.507 57.6909C24.8098 57.2816 23.2855 56.8251 21.934 56.3214C20.5825 55.7862 19.4353 55.1565 18.4924 54.4324C17.5495 53.6768 16.8267 52.7795 16.3238 51.7406C15.8209 50.7016 15.5695 49.4738 15.5695 48.0571C15.5695 46.5144 15.8523 45.1291 16.4181 43.9013C17.0152 42.642 17.8324 41.5873 18.8696 40.7372C19.9068 39.8872 21.1168 39.2418 22.4997 38.801C23.9141 38.3288 25.4227 38.0926 27.0256 38.0926C28.6914 38.0926 30.2 38.2815 31.5515 38.6593C32.9029 39.0371 34.113 39.5251 35.1816 40.1233C36.2502 40.69 37.1774 41.3512 37.9631 42.1067C38.7803 42.8309 39.456 43.5392 39.9903 44.2319L34.5687 47.7265C33.2172 46.4357 31.9286 45.5384 30.7029 45.0347C29.5085 44.4995 28.2513 44.2319 26.9313 44.2319C26.1141 44.2319 25.407 44.342 24.8098 44.5624C24.2441 44.7513 23.7726 45.0032 23.3955 45.318C23.0183 45.6014 22.7197 45.9319 22.4997 46.3097C22.3111 46.6875 22.2168 47.0496 22.2168 47.3959C22.2168 48.0256 22.374 48.5765 22.6883 49.0488C23.034 49.4895 23.5212 49.8988 24.1498 50.2766C24.8098 50.6544 25.6113 51.0007 26.5541 51.3156C27.5285 51.6304 28.6285 51.9452 29.8543 52.2601Z" fill="white"/>
<path d="M54.5889 47.5848C56.2861 47.5848 57.8733 47.9154 59.3505 48.5765C60.8277 49.2062 62.1163 50.072 63.2164 51.1739C64.3164 52.2758 65.1807 53.5666 65.8093 55.0463C66.4693 56.526 66.7993 58.1002 66.7993 59.7688C66.7993 61.4374 66.4693 63.0116 65.8093 64.4913C65.1807 65.971 64.3164 67.2618 63.2164 68.3637C62.1163 69.4656 60.8277 70.3471 59.3505 71.0083C57.8733 71.6379 56.2861 71.9528 54.5889 71.9528C52.8917 71.9528 51.3045 71.6379 49.8273 71.0083C48.3501 70.3471 47.0615 69.4656 45.9615 68.3637C44.8614 67.2618 43.9814 65.971 43.3214 64.4913C42.6928 63.0116 42.3785 61.4374 42.3785 59.7688C42.3785 58.1002 42.6928 56.526 43.3214 55.0463C43.9814 53.5666 44.8614 52.2758 45.9615 51.1739C47.0615 50.072 48.3501 49.2062 49.8273 48.5765C51.3045 47.9154 52.8917 47.5848 54.5889 47.5848ZM54.5889 66.333C55.3747 66.333 56.0975 66.1599 56.7576 65.8136C57.449 65.4673 58.0462 64.995 58.5491 64.3968C59.0834 63.7672 59.4919 63.0588 59.7748 62.2717C60.0891 61.4531 60.2463 60.5716 60.2463 59.6271C60.2463 58.7456 60.0891 57.9113 59.7748 57.1242C59.4919 56.3057 59.0834 55.613 58.5491 55.0463C58.0462 54.4481 57.449 53.9759 56.7576 53.6296C56.0975 53.2833 55.3747 53.1101 54.5889 53.1101C53.8032 53.1101 53.0646 53.2833 52.3731 53.6296C51.6817 53.9759 51.0688 54.4481 50.5345 55.0463C50.0316 55.613 49.623 56.3057 49.3087 57.1242C49.0259 57.9113 48.8844 58.7456 48.8844 59.6271C48.8844 60.5716 49.0259 61.4531 49.3087 62.2717C49.623 63.0588 50.0316 63.7672 50.5345 64.3968C51.0688 64.995 51.6817 65.4673 52.3731 65.8136C53.0646 66.1599 53.8032 66.333 54.5889 66.333Z" fill="white"/>
<path d="M69.1857 38.5177H75.4087V71.575H69.1385L69.1857 38.5177Z" fill="white"/>
<path d="M102.109 47.9626V71.7167H95.6507V47.9626H102.109ZM92.2091 65.6247L94.4721 69.7332V69.7804C92.8377 71.2287 90.8105 71.9528 88.3904 71.9528C84.556 71.9528 81.8373 70.9138 80.2344 68.8359C78.7572 66.9784 78.0186 64.019 78.0186 59.9577V47.9626H84.4774V59.9577C84.4774 60.8077 84.4931 61.6263 84.5246 62.4134C84.5874 63.2005 84.7603 63.8931 85.0432 64.4913C85.3575 65.0894 85.8289 65.5774 86.4575 65.9552C87.0861 66.3016 87.9818 66.4747 89.1447 66.4747C89.679 66.4747 90.1976 66.396 90.7005 66.2386C91.2034 66.0812 91.6748 65.8765 92.1148 65.6247H92.2091Z" fill="white"/>
<path d="M121.364 50.4183V55.6602H117.875L114.952 50.4183H121.364ZM114.15 63.4996C114.15 64.2237 114.402 64.8376 114.905 65.3413C115.439 65.845 116.068 66.0969 116.791 66.0969H121.364V71.575H116.791C115.565 71.575 114.402 71.3546 113.302 70.9138C112.233 70.4416 111.29 69.8119 110.473 69.0248C109.687 68.2063 109.059 67.2618 108.587 66.1914C108.116 65.1209 107.88 63.9718 107.88 62.7439V55.6602H104.486V50.4183H107.88V41.8706H114.15V63.4996Z" fill="white"/>
<path d="M123.741 71.575V47.9626H130.012V71.575H123.741ZM123.741 38.5177H130.012V44.043H123.741V38.5177Z" fill="white"/>
<path d="M144.596 47.5848C146.293 47.5848 147.881 47.9154 149.358 48.5765C150.835 49.2062 152.124 50.072 153.224 51.1739C154.324 52.2758 155.188 53.5666 155.817 55.0463C156.477 56.526 156.807 58.1002 156.807 59.7688C156.807 61.4374 156.477 63.0116 155.817 64.4913C155.188 65.971 154.324 67.2618 153.224 68.3637C152.124 69.4656 150.835 70.3471 149.358 71.0083C147.881 71.6379 146.293 71.9528 144.596 71.9528C142.899 71.9528 141.312 71.6379 139.835 71.0083C138.357 70.3471 137.069 69.4656 135.969 68.3637C134.869 67.2618 133.989 65.971 133.329 64.4913C132.7 63.0116 132.386 61.4374 132.386 59.7688C132.386 58.1002 132.7 56.526 133.329 55.0463C133.989 53.5666 134.869 52.2758 135.969 51.1739C137.069 50.072 138.357 49.2062 139.835 48.5765C141.312 47.9154 142.899 47.5848 144.596 47.5848ZM144.596 66.333C145.382 66.333 146.105 66.1599 146.765 65.8136C147.456 65.4673 148.054 64.995 148.556 64.3968C149.091 63.7672 149.499 63.0588 149.782 62.2717C150.096 61.4531 150.254 60.5716 150.254 59.6271C150.254 58.7456 150.096 57.9113 149.782 57.1242C149.499 56.3057 149.091 55.613 148.556 55.0463C148.054 54.4481 147.456 53.9759 146.765 53.6296C146.105 53.2833 145.382 53.1101 144.596 53.1101C143.811 53.1101 143.072 53.2833 142.38 53.6296C141.689 53.9759 141.076 54.4481 140.542 55.0463C140.039 55.613 139.63 56.3057 139.316 57.1242C139.033 57.9113 138.892 58.7456 138.892 59.6271C138.892 60.5716 139.033 61.4531 139.316 62.2717C139.63 63.0588 140.039 63.7672 140.542 64.3968C141.076 64.995 141.689 65.4673 142.38 65.8136C143.072 66.1599 143.811 66.333 144.596 66.333Z" fill="white"/>
<path d="M158.778 47.9626H165.189V71.575H158.778V47.9626ZM180.558 50.7016C181.344 51.6776 181.91 52.9055 182.255 54.3852C182.601 55.8649 182.774 57.6909 182.774 59.8632V71.575H176.362V59.8632C176.362 58.9817 176.331 58.1474 176.268 57.3603C176.237 56.5418 176.08 55.8334 175.797 55.2352C175.514 54.6056 175.058 54.1176 174.43 53.7713C173.801 53.4249 172.905 53.2518 171.742 53.2518C170.642 53.2518 169.621 53.4879 168.678 53.9602V54.0074L168.631 53.9602L166.321 49.8516L166.368 49.8044C168.002 48.3247 170.045 47.5848 172.497 47.5848C176.268 47.5848 178.955 48.6238 180.558 50.7016Z" fill="white"/>
<path d="M196.986 57.5492C198.023 57.8955 198.966 58.2576 199.815 58.6354C200.695 58.9817 201.449 59.4067 202.078 59.9105C202.738 60.4142 203.24 61.0281 203.586 61.7522C203.963 62.4449 204.152 63.2792 204.152 64.2551V64.3024C204.152 66.6951 203.35 68.5683 201.748 69.9221C200.176 71.2759 197.96 71.9528 195.1 71.9528C193.309 71.9528 191.549 71.6537 189.82 71.0555C188.091 70.4258 186.473 69.5443 184.964 68.4109L184.917 68.3637L184.964 68.3165L188.17 63.2634L188.217 63.3107C189.16 64.3181 190.229 65.0894 191.423 65.6247C192.617 66.1284 193.89 66.3803 195.242 66.3803C197.096 66.3803 198.023 65.7821 198.023 64.5857C198.023 64.019 197.725 63.594 197.127 63.3107C196.53 63.0273 195.823 62.7597 195.006 62.5078C194.849 62.4449 194.692 62.4134 194.534 62.4134C194.409 62.3819 194.267 62.3347 194.11 62.2717C193.167 62.0198 192.224 61.7522 191.281 61.4689C190.339 61.1541 189.49 60.7448 188.736 60.241C187.981 59.7058 187.353 59.0447 186.85 58.2576C186.378 57.439 186.143 56.4001 186.143 55.1408V55.0463C186.143 53.9444 186.347 52.937 186.756 52.0239C187.164 51.1109 187.746 50.3239 188.5 49.6627C189.254 49.0016 190.166 48.4978 191.234 48.1515C192.303 47.7737 193.482 47.5848 194.77 47.5848C196.279 47.5848 197.803 47.8209 199.343 48.2932C200.883 48.734 202.313 49.3951 203.633 50.2766V50.3711L200.758 55.613L200.71 55.5658C199.987 54.8417 199.092 54.275 198.023 53.8657C196.954 53.4249 195.823 53.2046 194.629 53.2046C194.409 53.2046 194.157 53.2203 193.874 53.2518C193.592 53.2833 193.324 53.362 193.073 53.4879C192.853 53.6138 192.664 53.787 192.507 54.0074C192.35 54.1963 192.271 54.4796 192.271 54.8574C192.271 55.1408 192.397 55.4084 192.649 55.6602C192.9 55.8806 193.214 56.101 193.592 56.3214C194 56.5103 194.44 56.6992 194.912 56.8881C195.414 57.077 195.902 57.2501 196.373 57.4076C196.467 57.4076 196.562 57.4233 196.656 57.4548C196.782 57.4863 196.892 57.5177 196.986 57.5492Z" fill="white"/>
<path fill-rule="evenodd" clip-rule="evenodd" d="M32.6583 29.2022C33.7005 28.2224 34.6005 27.1321 35.3584 25.9311L29.8162 22.3757C28.9319 24.0823 27.7161 25.4571 26.1687 26.5C24.6213 27.5113 22.8686 28.017 20.9107 28.017C19.5212 28.017 18.2106 27.7326 16.979 27.1637C15.7474 26.5632 14.6737 25.7731 13.7579 24.7934C12.9068 23.8535 12.2194 22.7772 11.6956 21.5644L5.83941 24.7953C6.64915 26.3639 7.6623 27.7697 8.87887 29.0125C10.4263 30.5295 12.2263 31.7305 14.279 32.6154C16.3632 33.5003 18.5738 33.9428 20.9107 33.9428C22.4265 33.9428 23.895 33.7532 25.3161 33.3739C26.7371 32.9947 28.0635 32.4574 29.2951 31.7621C30.5267 31.0352 31.6478 30.1819 32.6583 29.2022ZM6.24374 8.43354L11.9685 11.8195C12.4509 10.8311 13.0474 9.95689 13.7579 9.19679C14.6737 8.18546 15.7474 7.39535 16.979 6.82648C18.2106 6.226 19.5212 5.92576 20.9107 5.92576C22.8686 5.92576 24.6213 6.44723 26.1687 7.49016C27.7161 8.5015 28.9319 9.86047 29.8162 11.5671L35.3584 8.01163C34.6005 6.81068 33.7005 5.72034 32.6583 4.74061C31.6478 3.76088 30.5267 2.92337 29.2951 2.22809C28.0635 1.50119 26.7371 0.948121 25.3161 0.568872C23.895 0.189624 22.4265 0 20.9107 0C18.5738 0 16.3632 0.442457 14.279 1.32737C12.2263 2.21228 10.4263 3.42904 8.87887 4.97764C7.85697 6.00033 6.97859 7.1523 6.24374 8.43354Z" fill="white"/>
<path d="M11.5789 12.7048C11.0421 14.0322 10.7736 15.4544 10.7736 16.9714C10.7736 18.4884 11.0421 19.9264 11.5789 21.2853C11.6169 21.3792 11.6558 21.4722 11.6956 21.5644L20.3612 16.7835L11.9685 11.8195C11.8291 12.1051 11.6993 12.4002 11.5789 12.7048Z" fill="#3A7F84"/>
<path d="M5.27879 23.6082C4.39456 21.5224 3.95245 19.3101 3.95245 16.9714C3.95245 14.6327 4.39456 12.4362 5.27879 10.3819C5.56691 9.70227 5.88856 9.0528 6.24374 8.43354L0 4.74061V28.017L5.83941 24.7953C5.64023 24.4095 5.45336 24.0138 5.27879 23.6082Z" fill="#3A7F84"/>
<path d="M3.95245 16.9714C3.95245 19.3101 4.39456 21.5224 5.27879 23.6082C5.45336 24.0138 5.64023 24.4095 5.83941 24.7953L11.6956 21.5644C11.6558 21.4722 11.6169 21.3792 11.5789 21.2853C11.0421 19.9264 10.7736 18.4884 10.7736 16.9714C10.7736 15.4544 11.0421 14.0322 11.5789 12.7048C11.6993 12.4002 11.8291 12.1051 11.9685 11.8195L6.24374 8.43354C5.88856 9.0528 5.56691 9.70227 5.27879 10.3819C4.39456 12.4362 3.95245 14.6327 3.95245 16.9714Z" fill="#3A7F84"/>
</svg>
